HIERARCHY
ROOT Pelvis
{
	OFFSET 0.000000 0.000000 0.000000
	CHANNELS 6 Xposition Yposition Zposition Xrotation Yrotation Zrotation
	JOINT LeftUpLeg_virtual
	{
		OFFSET 0.000000 0.000000 0.000000
		CHANNELS 3 Xrotation Yrotation Zrotation
		JOINT LeftUpLeg
		{
			OFFSET 8.479700 -4.795502 -0.379100
			CHANNELS 3 Xrotation Yrotation Zrotation
			JOINT LeftLeg
			{
				OFFSET 0.024144 -32.555107 0.112900
				CHANNELS 3 Xrotation Yrotation Zrotation
				JOINT LeftFoot
				{
					OFFSET -0.024144 -32.638630 -3.012600
					CHANNELS 3 Xrotation Yrotation Zrotation
					JOINT LeftToeBase
					{
						OFFSET 0.970200 -13.225400 11.864200
						CHANNELS 3 Xrotation Yrotation Zrotation
						End Site
						{
							OFFSET 0 0 0
						}
					}
				}
			}
		}
	}
	JOINT RightUpLeg_virtual
	{
		OFFSET 0.000000 0.000000 0.000000
		CHANNELS 3 Xrotation Yrotation Zrotation
		JOINT RightUpLeg
		{
			OFFSET -8.479700 -4.795502 -0.379100
			CHANNELS 3 Xrotation Yrotation Zrotation
			JOINT RightLeg
			{
				OFFSET -0.023144 -32.555092 0.112900
				CHANNELS 3 Xrotation Yrotation Zrotation
				JOINT RightFoot
				{
					OFFSET 0.023144 -32.638641 -3.012700
					CHANNELS 3 Xrotation Yrotation Zrotation
					JOINT RightToeBase
					{
						OFFSET -0.970200 -13.225400 11.864200
						CHANNELS 3 Xrotation Yrotation Zrotation
						End Site
						{
							OFFSET 0 0 0
						}
					}
				}
			}
		}
	}
	JOINT Hips_virtual
	{
		OFFSET 0.000000 0.000000 0.000000
		CHANNELS 3 Xrotation Yrotation Zrotation
		JOINT Hips
		{
			OFFSET -0.000000 -0.000000 -0.000000
			CHANNELS 3 Xrotation Yrotation Zrotation
			JOINT Spine
			{
				OFFSET 0.000000 7.722000 1.166200
				CHANNELS 3 Xrotation Yrotation Zrotation
				JOINT Spine1
				{
					OFFSET 0.000000 12.024101 0.248800
					CHANNELS 3 Xrotation Yrotation Zrotation
					JOINT Spine2
					{
						OFFSET 0.000000 11.502998 -0.491200
						CHANNELS 3 Xrotation Yrotation Zrotation
						JOINT Neck_virtual
						{
							OFFSET 0.000000 0.000000 0.000000
							CHANNELS 3 Xrotation Yrotation Zrotation
							JOINT Neck
							{
								OFFSET 0.000000 18.430702 -3.123100
								CHANNELS 3 Xrotation Yrotation Zrotation
								JOINT Head
								{
									OFFSET 0.000000 9.051102 1.034000
									CHANNELS 3 Xrotation Yrotation Zrotation
									End Site
									{
										OFFSET 0 0 0
									}
								}
							}
						}
						JOINT LeftShoulder_virtual
						{
							OFFSET 0.000000 0.000000 0.000000
							CHANNELS 3 Xrotation Yrotation Zrotation
							JOINT LeftShoulder
							{
								OFFSET 6.197800 13.665199 -4.064700
								CHANNELS 3 Xrotation Yrotation Zrotation
								JOINT LeftArm
								{
									OFFSET 7.778100 -0.187103 -1.709300
									CHANNELS 3 Xrotation Yrotation Zrotation
									JOINT LeftForeArm
									{
										OFFSET 22.049376 0.000000 0.000000
										CHANNELS 3 Xrotation Yrotation Zrotation
										JOINT LeftHand
										{
											OFFSET 23.009392 0.000000 0.000000
											CHANNELS 3 Xrotation Yrotation Zrotation
											End Site
											{
												OFFSET 0 0 0
											}
										}
									}
								}
							}
						}
						JOINT RightShoulder_virtual
						{
							OFFSET 0.000000 0.000000 0.000000
							CHANNELS 3 Xrotation Yrotation Zrotation
							JOINT RightShoulder
							{
								OFFSET -6.197800 13.665199 -4.064700
								CHANNELS 3 Xrotation Yrotation Zrotation
								JOINT RightArm
								{
									OFFSET -7.778100 -0.187103 -1.709300
									CHANNELS 3 Xrotation Yrotation Zrotation
									JOINT RightForeArm
									{
										OFFSET -22.049376 0.000000 0.000000
										CHANNELS 3 Xrotation Yrotation Zrotation
										JOINT RightHand
										{
											OFFSET -23.009392 0.000000 0.000000
											CHANNELS 3 Xrotation Yrotation Zrotation
											End Site
											{
												OFFSET 0 0 0
											}
										}
									}
								}
							}
						}
					}
				}
			}
		}
	}
}
MOTION
Frames: 7
Frame Time: 0.03333333
-5.303094 78.823807 0.534418 0.000000 0.000000 0.000000 2.464616 28.031660 0.481771 -31.044910 -22.998135 0.245902 28.010806 15.587434 -7.645366 1.688793 -3.121722 -5.195507 0.000000 0.000000 0.000000 2.464616 28.031660 0.481771 -4.105510 -27.544906 -7.535825 29.214994 -8.697198 7.636543 -25.668454 -10.141766 -0.338456 0.000000 0.000000 0.000000 2.464616 28.031660 0.481771 0.000000 0.000000 0.000000 3.884503 4.624585 -1.462721 0.662380 3.033939 0.848257 0.000000 0.000000 0.000000 0.672733 3.142720 0.838939 -2.710827 10.151295 -6.043543 0.000000 0.000000 0.000000 0.672733 3.142720 0.838939 -0.170425 1.694771 -1.674852 -70.359186 1.043910 -26.985321 2.443044 -70.793272 3.754332 0.000000 0.000000 0.000000 0.672733 3.142720 0.838939 4.020290 15.450600 6.652469 13.125175 -8.190055 63.320812 15.659592 40.753512 -6.335590 0.000000 0.000000 0.000000 
-5.318233 78.842773 0.448225 0.000000 0.000000 0.000000 2.694638 26.635250 0.302069 -30.944356 -22.300684 0.904262 28.209938 15.870506 -7.649925 1.504690 -2.908283 -5.318460 0.000000 0.000000 0.000000 2.694638 26.635250 0.302069 -4.644624 -26.519791 -7.456313 29.366091 -8.448520 7.467474 -25.528006 -10.031048 -0.325354 0.000000 0.000000 0.000000 2.694638 26.635250 0.302069 0.000000 0.000002 0.000000 3.951276 4.547855 -1.476394 0.707250 2.981743 0.854121 0.000000 0.000000 0.000000 0.717239 3.091649 0.846011 -3.079328 8.772029 -5.694020 0.000000 0.000000 0.000000 0.717239 3.091649 0.846011 -0.162803 1.312169 -1.801278 -70.388917 1.155126 -27.050800 2.651007 -71.946440 3.781610 0.000000 0.000000 0.000000 0.717239 3.091649 0.846011 4.048800 15.426146 6.521217 12.805618 -8.144394 63.265761 15.745731 41.230867 -6.421033 0.000000 0.000000 0.000000 
-5.326139 78.859711 0.353308 0.000000 0.000000 0.000000 2.952724 25.203721 0.121529 -30.886716 -21.626401 1.556204 28.426061 16.196006 -7.671119 1.314939 -2.668048 -5.452185 0.000000 0.000000 0.000000 2.952724 25.203721 0.121529 -5.223206 -25.432720 -7.412605 29.527871 -8.199781 7.381913 -25.378049 -9.902327 -0.318783 0.000000 0.000000 0.000000 2.952724 25.203721 0.121529 0.000000 0.000002 0.000000 4.013724 4.485263 -1.471113 0.745715 2.934846 0.846918 0.000000 0.000000 0.000000 0.756890 3.044787 0.839890 -3.457282 7.577858 -5.438825 0.000000 0.000000 0.000000 0.756890 3.044787 0.839890 -0.084037 0.806783 -1.884201 -70.540295 1.291854 -27.179160 2.895034 -73.071051 3.786728 0.000000 0.000000 0.000000 0.756890 3.044787 0.839890 4.018018 15.343496 6.386902 12.582817 -8.065740 63.241869 15.851406 41.731985 -6.506793 0.000000 0.000000 0.000000 
-5.329648 78.875351 0.250399 0.000000 0.000000 0.000000 3.240344 23.734047 -0.060395 -30.870891 -21.002260 2.205292 28.649952 16.554528 -7.715365 1.138169 -2.409800 -5.575638 0.000000 0.000000 0.000000 3.240344 23.734047 -0.060395 -5.870776 -24.355702 -7.386961 29.732671 -7.970731 7.302375 -25.223498 -9.780576 -0.329358 0.000000 0.000000 0.000000 3.240344 23.734047 -0.060395 0.000000 0.000001 0.000000 4.064048 4.385460 -1.499451 0.790330 2.868907 0.853545 0.000000 0.000000 0.000000 0.800377 2.980542 0.848366 -3.958434 6.548236 -5.148045 0.000000 0.000000 0.000000 0.800377 2.980542 0.848366 -0.018821 0.448286 -1.891516 -70.716541 1.401109 -27.633591 3.155399 -74.131089 3.832586 0.000000 0.000000 0.000000 0.800377 2.980542 0.848366 4.046390 15.322747 6.229108 12.299356 -7.930867 63.218120 15.936184 42.171647 -6.586656 0.000000 0.000000 0.000000 
-5.330907 78.891190 0.140265 0.000000 0.000000 0.000000 3.555929 22.220337 -0.242372 -30.907146 -20.823080 2.715584 28.914588 17.210214 -7.722878 0.965273 -1.929812 -5.838917 0.000000 0.000000 0.000000 3.555929 22.220337 -0.242372 -6.558731 -23.202554 -7.309502 29.917700 -7.707492 7.182927 -25.047777 -9.655821 -0.304209 0.000000 0.000000 0.000000 3.555929 22.220337 -0.242372 0.000000 0.000002 0.000000 4.114026 4.280467 -1.508813 0.813765 2.798221 0.871274 0.000000 0.000000 0.000000 0.822901 2.911496 0.866819 -4.434309 5.616291 -5.025566 0.000000 0.000000 0.000000 0.822901 2.911496 0.866819 0.049265 0.112973 -1.841730 -70.965379 1.555733 -28.323611 3.446458 -75.023440 3.823215 0.000000 0.000000 0.000000 0.822901 2.911496 0.866819 4.069651 15.320693 6.024856 12.145406 -7.778648 63.262517 16.010667 42.685359 -6.730029 0.000000 0.000000 0.000000 
-5.327697 78.908775 0.024080 0.000000 0.000000 0.000000 3.894965 20.654806 -0.422335 -30.953864 -20.621803 3.239542 29.185105 17.909577 -7.729156 0.788103 -1.417059 -6.116820 0.000000 0.000000 0.000000 3.894965 20.654806 -0.422335 -7.272243 -22.008659 -7.294739 30.099261 -7.459888 7.222618 -24.851570 -9.492798 -0.340381 0.000000 0.000000 0.000000 3.894965 20.654806 -0.422335 0.000000 -0.000001 0.000000 4.154854 4.197208 -1.516946 0.838985 2.743052 0.893646 0.000000 0.000000 0.000000 0.847069 2.858275 0.890173 -5.002910 4.689083 -4.944462 0.000000 0.000000 0.000000 0.847069 2.858275 0.890173 -0.103512 -0.217817 -1.680272 -70.957059 1.711558 -29.338722 3.697106 -75.737529 3.895613 0.000000 0.000000 0.000000 0.847069 2.858275 0.890173 4.080840 15.211118 5.832574 12.054084 -7.557014 63.218243 16.209499 43.249478 -6.794111 0.000000 0.000000 0.000000 
-5.317896 78.929199 -0.096060 0.000000 0.000000 0.000000 4.250603 19.028084 -0.598007 -31.001860 -20.391284 3.783697 29.463537 18.645457 -7.735461 0.606134 -0.876125 -6.406893 0.000000 0.000000 0.000000 4.250603 19.028084 -0.598007 -8.033269 -20.887390 -7.175543 30.250539 -7.168790 7.016070 -24.606252 -9.377209 -0.236789 0.000000 0.000000 0.000000 4.250603 19.028084 -0.598007 0.000000 0.000000 0.000000 4.183543 4.110393 -1.534141 0.895980 2.686893 0.916957 0.000000 0.000000 0.000000 0.902540 2.804680 0.916454 -5.834662 3.676898 -4.812162 0.000000 0.000000 0.000000 0.902540 2.804680 0.916454 -0.033587 -0.456568 -1.544512 -71.151331 1.754736 -30.563888 3.947269 -76.397401 4.009971 0.000000 0.000000 0.000000 0.902540 2.804680 0.916454 4.107277 15.021816 5.670997 11.924075 -7.209786 63.117314 16.375254 43.773672 -6.874434 0.000000 0.000000 0.000000 
